<svg id="listAdd" viewBox="0 0 23 23" version="1.1" xmlns="http://www.w3.org/2000/svg" xmlns:xlink="http://www.w3.org/1999/xlink" xml:space="preserve" xmlns:serif="http://www.serif.com/" style="fill-rule:evenodd;clip-rule:evenodd;stroke-linejoin:round;stroke-miterlimit:2;"><path d="M16.596,10.642c-3.28,0 -5.953,2.673 -5.953,5.953c0,3.28 2.673,5.953 5.953,5.953c3.28,0 5.953,-2.673 5.953,-5.953c-0,-3.28 -2.673,-5.953 -5.953,-5.953Zm0,10.716c-2.625,-0 -4.762,-2.137 -4.762,-4.763c-0,-2.625 2.137,-4.762 4.762,-4.762c2.625,0 4.762,2.137 4.762,4.762c0,2.626 -2.137,4.763 -4.762,4.763Zm0.595,-7.739l-1.19,-0l-0,2.381l-2.381,0l-0,1.191l2.381,-0l-0,2.381l1.19,-0l0,-2.381l2.381,-0l0,-1.191l-2.381,0l0,-2.381Zm-6.504,4.381l-9.787,0c-0.5,0 -0.9,-0.5 -0.9,-0.9l0,-16.2c0,-0.5 0.4,-0.9 0.9,-0.9l16.2,0c0.4,0 0.9,0.4 0.9,0.9l0,9.787c-0.451,-0.108 -0.921,-0.165 -1.404,-0.165c-0.201,0 -0.4,0.01 -0.596,0.03l0,-8.552l-14,0l0,14l8.552,0c-0.019,0.196 -0.029,0.395 -0.029,0.595c0,0.484 0.057,0.954 0.164,1.405Zm1.945,-6c-0.637,0.551 -1.16,1.231 -1.525,2l-3.107,0l0,-2l4.632,0Zm-8.632,0l2,0l0,2l-2,0l0,-2Zm4,-4l6,0l0,2l-6,0l0,-2Zm-4,0l2,0l0,2l-2,0l0,-2Zm4,-4l6,0l0,2l-6,0l0,-2Zm-4,0l2,0l0,2l-2,0l0,-2Z" style="fill-rule:nonzero;"/></svg>