<svg id="existList" viewBox="0 0 23 23" version="1.1" xmlns="http://www.w3.org/2000/svg" xmlns:xlink="http://www.w3.org/1999/xlink" xml:space="preserve" xmlns:serif="http://www.serif.com/" style="fill-rule:evenodd;clip-rule:evenodd;stroke-linejoin:round;stroke-miterlimit:2;"><path d="M16.596,10.643c-3.286,-0 -5.953,2.667 -5.953,5.953c0,3.285 2.667,5.952 5.953,5.952c3.286,0 5.953,-2.667 5.953,-5.952c-0,-3.286 -2.667,-5.953 -5.953,-5.953Zm0,10.715c-2.625,-0 -4.762,-2.137 -4.762,-4.762c-0,-2.626 2.137,-4.763 4.762,-4.763c2.625,0 4.762,2.137 4.762,4.763c0,2.625 -2.137,4.762 -4.762,4.762Zm2.732,-7.394l-3.922,3.923l-1.542,-1.536l-0.839,0.84l2.381,2.381l4.762,-4.762l-0.84,-0.846Zm-8.641,4.036l-9.787,-0c-0.5,-0 -0.9,-0.5 -0.9,-0.9l0,-16.2c0,-0.5 0.4,-0.9 0.9,-0.9l16.2,-0c0.4,-0 0.9,0.4 0.9,0.9l0,9.787c-0.451,-0.108 -0.921,-0.165 -1.404,-0.165c-0.201,0 -0.4,0.01 -0.596,0.03l0,-8.552l-14,0l0,14l8.552,-0c-0.019,0.196 -0.029,0.395 -0.029,0.595c0,0.484 0.057,0.954 0.164,1.405Zm1.945,-6c-0.637,0.551 -1.16,1.231 -1.525,2l-3.107,0l0,-2l4.632,-0Zm-8.632,-0l2,-0l0,2l-2,0l0,-2Zm4,-4l6,0l0,2l-6,-0l0,-2Zm-4,0l2,0l0,2l-2,-0l0,-2Zm4,-4l6,-0l0,2l-6,-0l0,-2Zm-4,-0l2,-0l0,2l-2,-0l0,-2Z" style="fill-rule:nonzero;"/></svg>