<svg id="FMSVG" viewBox="0 0 170 149" version="1.1" xmlns="http://www.w3.org/2000/svg" xmlns:xlink="http://www.w3.org/1999/xlink" xml:space="preserve" xmlns:serif="http://www.serif.com/" style="fill-rule:evenodd;clip-rule:evenodd;stroke-linejoin:round;stroke-miterlimit:2;"><path d="M169.956,48.81l-30.171,92.63c0,0 -0.888,3.437 -5.291,5.33c-4.402,1.892 -7.801,1.892 -7.801,1.892l-106.143,-34.498c0,0 -4.103,-1.829 -5.388,-4.968c-1.285,-3.139 -1.285,-8.725 -1.285,-8.725l21.747,-67.391l-26.157,-7.879c0,0 -6.822,-1.75 -9.037,-9.461c-2.215,-7.712 4.627,-14.475 9.037,-15.463c4.41,-0.989 10.376,0.988 10.376,0.988l150.113,47.545Zm-39.138,12.381l17.022,5.109l12.385,-7.861l-5.711,-13.494l-16.736,-5.236l5.474,13.272l-12.434,8.21Zm-33.141,-10.278l17.022,5.11l12.385,-7.862l-5.711,-13.494l-16.736,-5.236l5.473,13.272l-12.433,8.21Zm-33.142,-10.173l17.022,5.11l12.385,-7.862l-5.71,-13.493l-16.736,-5.236l5.473,13.272l-12.434,8.209Zm-33.141,-10.253l17.022,5.109l12.385,-7.862l-5.711,-13.493l-16.736,-5.236l5.473,13.272l-12.433,8.21Z"/></svg>