<svg id="right" viewBox="0 0 63 88" version="1.1" xmlns="http://www.w3.org/2000/svg" xmlns:xlink="http://www.w3.org/1999/xlink" xml:space="preserve" xmlns:serif="http://www.serif.com/" style="fill-rule:evenodd;clip-rule:evenodd;stroke-linejoin:round;stroke-miterlimit:2;"><path d="M62.404,44.832c0.62,-0.62 0.62,-1.624 -0,-2.244l-42.123,-42.123c-0.62,-0.62 -1.625,-0.62 -2.245,-0l-17.571,17.571c-0.62,0.62 -0.62,1.625 -0,2.245l23.429,23.429c0,0 -23.429,23.43 -23.429,23.43c-0.62,0.619 -0.62,1.624 -0,2.244l17.571,17.571c0.62,0.62 1.625,0.62 2.245,0l42.123,-42.123Zm-3.367,-1.122l-39.878,39.879c-0,-0 -15.328,-15.327 -15.328,-15.327c0,-0 23.43,-23.43 23.43,-23.43c0.619,-0.62 0.619,-1.624 -0,-2.244c-0,-0 -18.621,-18.621 -23.43,-23.429c0,-0 15.328,-15.328 15.328,-15.328c5.965,5.966 33.913,33.913 39.878,39.879l0,0Z"/></svg>