<svg id="left" viewBox="0 0 63 88" version="1.1" xmlns="http://www.w3.org/2000/svg" xmlns:xlink="http://www.w3.org/1999/xlink" xml:space="preserve" xmlns:serif="http://www.serif.com/" style="fill-rule:evenodd;clip-rule:evenodd;stroke-linejoin:round;stroke-miterlimit:2;"><path d="M0.465,42.588c-0.62,0.62 -0.62,1.624 -0,2.244l42.123,42.123c0.62,0.62 1.624,0.62 2.244,0l17.572,-17.571c0.62,-0.62 0.62,-1.625 -0,-2.244l-23.43,-23.43c0,0 23.43,-23.429 23.43,-23.429c0.62,-0.62 0.62,-1.625 -0,-2.245l-17.572,-17.571c-0.62,-0.62 -1.624,-0.62 -2.244,-0l-42.123,42.123Zm3.366,1.122l39.879,-39.879c0,0 15.327,15.328 15.327,15.328c0,-0 -23.429,23.429 -23.429,23.429c-0.62,0.62 -0.62,1.624 -0,2.244l23.429,23.43c0,-0 -15.327,15.327 -15.327,15.327c0,-0 -39.879,-39.879 -39.879,-39.879l0,0Z"/></svg>