<svg id="star" viewBox="0 0 65 62" version="1.1" xmlns="http://www.w3.org/2000/svg" xmlns:xlink="http://www.w3.org/1999/xlink" xml:space="preserve" xmlns:serif="http://www.serif.com/" style="fill-rule:evenodd;clip-rule:evenodd;stroke-linejoin:round;stroke-miterlimit:2;"><path d="M30.632,1.037l-6.415,21.817c-0,0 -22.732,-0.641 -22.732,-0.641c-0.641,-0.018 -1.216,0.388 -1.414,0.997c-0.198,0.609 0.029,1.276 0.558,1.638c-0,-0 18.767,12.843 18.767,12.843c-0,-0 -7.634,21.421 -7.634,21.421c-0.215,0.604 -0.007,1.276 0.511,1.653c0.518,0.377 1.223,0.367 1.73,-0.024c0,-0 18.014,-13.88 18.014,-13.88c-0,-0 18.014,13.88 18.014,13.88c0.507,0.391 1.211,0.401 1.73,0.024c0.518,-0.377 0.726,-1.049 0.511,-1.653c-0,0 -7.634,-21.421 -7.634,-21.421c-0,-0 18.767,-12.843 18.767,-12.843c0.529,-0.362 0.756,-1.029 0.558,-1.638c-0.198,-0.609 -0.774,-1.015 -1.414,-0.997c-0,0 -22.732,0.641 -22.732,0.641c0,0 -6.415,-21.817 -6.415,-21.817c-0.181,-0.615 -0.745,-1.037 -1.385,-1.037c-0.641,0 -1.205,0.422 -1.385,1.037Z"/></svg>