<svg id="empty" viewBox="0 0 65 62" version="1.1" xmlns="http://www.w3.org/2000/svg" xmlns:xlink="http://www.w3.org/1999/xlink" xml:space="preserve" xmlns:serif="http://www.serif.com/" style="fill-rule:evenodd;clip-rule:evenodd;stroke-linejoin:round;stroke-miterlimit:2;"><path d="M30.632,1.037l-6.415,21.817c-0,0 -22.732,-0.641 -22.732,-0.641c-0.641,-0.018 -1.216,0.388 -1.414,0.997c-0.198,0.609 0.029,1.276 0.558,1.638c-0,-0 18.767,12.843 18.767,12.843c-0,-0 -7.634,21.421 -7.634,21.421c-0.215,0.604 -0.007,1.276 0.511,1.653c0.518,0.377 1.223,0.367 1.73,-0.024c0,-0 18.014,-13.88 18.014,-13.88c-0,-0 18.014,13.88 18.014,13.88c0.507,0.391 1.211,0.401 1.73,0.024c0.518,-0.377 0.726,-1.049 0.511,-1.653c-0,0 -7.634,-21.421 -7.634,-21.421c-0,-0 18.767,-12.843 18.767,-12.843c0.529,-0.362 0.756,-1.029 0.558,-1.638c-0.198,-0.609 -0.774,-1.015 -1.414,-0.997c-0,0 -22.732,0.641 -22.732,0.641c0,0 -6.415,-21.817 -6.415,-21.817c-0.181,-0.615 -0.745,-1.037 -1.385,-1.037c-0.641,-0 -1.205,0.422 -1.385,1.037Zm0.959,0.282c0.056,-0.189 0.229,-0.319 0.426,-0.319c0.197,-0 0.37,0.13 0.426,0.319c-0,-0 6.523,22.187 6.523,22.187c0.064,0.218 0.267,0.365 0.494,0.358l23.117,-0.651c0.197,-0.006 0.374,0.119 0.435,0.306c0.061,0.187 -0.009,0.392 -0.172,0.504c0,-0 -19.085,13.06 -19.085,13.06c-0.187,0.128 -0.265,0.367 -0.188,0.581l7.763,21.784c0.066,0.185 0.002,0.392 -0.157,0.508c-0.16,0.116 -0.376,0.113 -0.532,-0.008c-0,0 -18.319,-14.115 -18.319,-14.115c-0.18,-0.138 -0.43,-0.138 -0.61,0l-18.319,14.115c-0.156,0.121 -0.373,0.124 -0.532,0.008c-0.159,-0.116 -0.223,-0.323 -0.157,-0.508c-0,-0 7.763,-21.784 7.763,-21.784c0.076,-0.214 -0.001,-0.453 -0.188,-0.581l-19.086,-13.06c-0.162,-0.112 -0.232,-0.317 -0.171,-0.504c0.061,-0.187 0.238,-0.312 0.435,-0.306c-0,-0 23.117,0.651 23.117,0.651c0.227,0.007 0.429,-0.14 0.493,-0.358c0,-0 6.524,-22.187 6.524,-22.187Z"/></svg>