<svg id="loader" viewBox="0 0 156 156" version="1.1" xmlns="http://www.w3.org/2000/svg" xmlns:xlink="http://www.w3.org/1999/xlink" xml:space="preserve" xmlns:serif="http://www.serif.com/" style="fill-rule:evenodd;clip-rule:evenodd;stroke-linejoin:round;stroke-miterlimit:2;"><path d="M0,86.413l15.11,0c3.783,28.172 26.115,50.507 54.295,54.295l0,15.11c-36.461,-3.94 -65.46,-32.936 -69.405,-69.405Zm155.818,0c-3.94,36.461 -32.936,65.46 -69.405,69.405l0,-15.11c28.172,-3.783 50.507,-26.115 54.295,-54.295l15.11,0Zm-69.405,-86.413c36.461,3.94 65.46,32.937 69.405,69.405l-15.11,0c-3.783,-28.172 -26.115,-50.507 -54.295,-54.295l0,-15.11Zm-17.008,0l0,15.11c-28.172,3.783 -50.507,26.115 -54.295,54.295l-15.11,0c3.94,-36.461 32.937,-65.46 69.405,-69.405Z"/></svg>